<?xml version="1.0" encoding="UTF-8"?>
<svg id="Layer_1" data-name="Layer 1" xmlns="http://www.w3.org/2000/svg" viewBox="0 0 910 407">
  <defs>
    <style>
      .cls-1 {
        fill: #ffc03f;
      }
    </style>
  </defs>
  <path class="cls-1" d="M288.74,212.51c0-23.71.16-47.45-.11-71.16-.06-5.87,1.85-7.25,7.5-6.73,20.78,1.96,41.59,21.87,43.79,42.53.5,4.68.84,9.38.84,14.07.07,41.88-.05,83.76.15,125.65.03,5.81-1.61,7.93-7.63,7.65-10.06-.45-20.14-.19-30.22-.1-3.68.03-5.94-.99-6.91-4.98-1.15-4.74-3.17-9.29-4.66-13.94-2.48-7.78-3.05-7.98-8.7-2.39-13.96,13.75-30.18,23.18-50.09,24.86-19.82,1.67-38.63-.78-53.62-15.63-11.28-11.18-16-25.53-16.23-40.7-.68-43.79-.36-87.62-.54-131.42-.02-4.48,1.53-5.92,6.09-5.66,22.4,1.23,44.7,22.81,45.34,45.8.81,28.83.42,57.69.45,86.53,0,8.18.86,16.29,3.18,24.05,7.17,23.96,31.78,25.07,47.79,17.36,7.99-3.85,14.64-9.54,20.89-15.8,2.6-2.61,2.74-5.58,2.73-8.82-.02-23.71,0-47.45,0-71.16h-.03Z"/>
  <path class="cls-1" d="M358.31,239.56c0-25.64-.03-51.26.05-76.91,0-2.36-1.35-5.74,1.85-6.78,3.18-1.04,6.8-1.28,9.69,1.42.31.29.62.6.94.87,14.87,12.91,26.9,12.75,41.31-.65,12.81-11.89,26.34-22.78,44.04-26.29,17.32-3.41,34.62-3.33,50.95,4.45,16.38,7.81,24.74,21.84,28.11,39.04,1.93,9.85,2.43,19.9,2.4,29.98-.13,36.32-.05,72.63-.05,108.95,0,6.93-3.58,10.4-10.73,10.4-11.15,0-22.3-.29-33.44.11-6.27.23-8.12-2.09-8.1-8.14.19-40.38.13-80.76.07-121.13,0-9.17-.76-18.2-2.95-27.27-3.99-16.47-21.09-25.09-37.61-21.97-11.91,2.25-21.86,8.27-30.81,16.27-3.47,3.11-3.85,6.83-3.85,11,.05,46.99.03,93.99.02,141,0,6.75-3.44,10.13-10.32,10.13-11.57,0-23.16-.23-34.72.1-5.4.15-7-1.83-6.95-7.05.19-25.85.1-51.7.1-77.55v.02Z"/>
  <path class="cls-1" d="M553.87,239.49c0-25.64-.03-51.26.05-76.91,0-2.36-1.33-5.74,1.92-6.74,3.2-.99,6.82-1.25,9.67,1.5.16.15.33.29.47.44,13.49,14.03,29.54,11.94,42.79-1.1,12.14-11.96,25.79-22.1,43.05-25.46,17.32-3.37,34.62-3.32,50.94,4.51,16.36,7.85,24.71,21.87,28.05,39.07,1.92,9.87,2.42,19.9,2.39,29.98-.13,36.96-.03,73.91-.07,110.88,0,8.14-.24,8.38-8.23,8.4-12.01.03-24.02-.29-36,.13-6.36.23-8.03-2.25-8.02-8.22.18-40.38.11-80.76.07-121.13,0-9.17-.76-18.2-2.97-27.26-3.99-16.4-21.12-25.04-37.66-21.89-11.91,2.26-21.85,8.3-30.78,16.31-3.47,3.12-3.8,6.86-3.78,11.02.05,46.78.03,93.57.02,140.35,0,7.13-3.47,10.69-10.41,10.69-11.36,0-22.74-.32-34.07.13-6.15.24-7.6-2.12-7.53-7.8.24-25.64.1-51.26.1-76.9l.02.02Z"/>
  <path class="cls-1" d="M872.8,159.78c0-6.41.29-12.85-.1-19.22-.31-5.23,1.83-6.7,6.74-6.52,8.13.29,16.3,0,24.45.13,6.91.1,7.42.86,4.24,6.91-14.02,26.66-25.63,54.42-37.69,81.97-19.15,43.77-37.93,87.7-57.01,131.5-9.77,22.42-24.64,39.89-48.63,48.08-8.38,2.86-16.99,4.27-25.87,4.34-3.54.03-5.2-1.08-4.76-4.85,1.04-8.91,1.88-17.84,2.91-26.74.5-4.32,2.29-5.29,5.63-1.96,4.14,4.11,8.9,7.43,14.2,9.79,10.66,4.72,20.47,2.6,29.54-4.24,13.13-9.92,20-24.02,26.88-38.39,4.09-8.54,3.44-15.66-.32-24.09-26.07-58.43-51.7-117.06-77.46-175.62-2.58-5.87-2.14-6.68,4.12-6.71,9.22-.05,18.44-.08,27.66.27,14.46.57,24.74,7.88,30.53,20.87,14.77,33.11,29.22,66.37,43.79,99.57.18.39.23.86.46,1.2,1.15,1.71,1.31,4.9,3.44,4.95,2.6.05,3.03-3.12,3.99-5.16,10.36-21.89,18.54-44.44,21.99-68.57,1.32-9.17,1.04-18.31,1.25-27.49l.02-.02Z"/>
  <path class="cls-1" d="M76.31,129.8c20.18-.24,38.62,4.22,56.68,10.61,4.09,1.44,6.28,3.24,4.4,8.46-3.23,9.01-5.63,18.35-8,27.63-1.22,4.79-3.23,4.34-6.02,1.63-6.64-6.41-11.86-14.02-17.68-21.13-7.09-8.64-14.53-16.84-25.42-20.93-12-4.51-31.36-.03-39.95,9.38-11.14,12.2-8.51,30.7,5.73,40.72,12.26,8.61,26.47,12.81,40.22,18.12,12.37,4.77,24.71,9.56,35.9,16.86,18.15,11.83,28.02,28.25,26.65,49.94-1.41,22.34-13.67,38.07-33.31,48.27-11.43,5.94-23.86,8.23-36.54,8.85-25.31,1.23-49.9-2.59-73.82-11.03-5.16-1.83-5.96-4.66-4.54-9.25,2.63-8.56,5.21-17.13,7.69-25.74,1.43-4.97,4.71-4.34,8.03-2.67,6.04,2.99,10.81,7.62,15.31,12.52,6.22,6.78,12.27,13.69,18.59,20.37,16.28,17.18,40.87,13.36,55.37,3.33,16.26-11.28,15.4-35.36-1.23-46.82-12.65-8.7-27.11-13.49-41.33-18.8-13.03-4.87-25.87-10.01-37.46-17.97-36.38-25.03-29.57-76.58,10.26-94.6,13.12-5.94,26.98-8.1,40.45-7.7l.02-.05Z"/>
  <path class="cls-1" d="M171.36,30.96c10.08-.19,18.62,2.99,25.78,9.67,3.7,3.46,6.14,7.68,6.46,12.83.55,8.67-5.15,16.44-13.59,18.65-6.23,1.65-12.64,1.81-19.04,1.89-2.95.05-5.89.18-8.78.95-3.2.86-4.87,2.85-4.97,6.13-.23,7.86,7.14,16.4,15.06,17.62,9.93,1.52,17.79-2.15,24.25-9.43.32-.37.62-.76.94-1.13.44-.52.93-1.05,1.62-.42.6.55.1,1.04-.21,1.49-8.47,12.39-20.4,19.22-34.96,17.52-15.79-1.84-25.84-10.74-29.66-25.92-4.38-17.44,1.22-36.16,18.21-45.34,5.94-3.22,12.37-4.71,18.88-4.51ZM155.76,77.31c2.52-5.34,4.69-7.17,10.28-9.03,2.79-.92,5.6-1.86,8.28-3.06,7.48-3.35,12.14-8.88,12.34-17.31.11-4.79-1.09-9.22-5.32-12.29-7.48-5.42-17.26-2.96-22.06,5.86-5.36,9.82-5.55,20.48-4.58,31.27.13,1.42.2,2.91,1.06,4.56h.02Z"/>
  <path class="cls-1" d="M12.55,64.28c0-8.59-.1-17.16.05-25.75.05-2.56-.86-3.38-3.26-3.14-1.3.13-2.63,0-3.93,0-.91,0-1.67-.23-1.72-1.29-.05-1.15.76-1.29,1.66-1.31,1.64-.03,3.28-.11,4.92-.08,1.67.03,2.34-.7,2.32-2.36-.05-4.9.06-9.82-.05-14.72-.05-2.02.71-2.51,2.6-2.38,8.05.55,16.22,8.48,16.96,16.91.21,2.35,1.12,2.83,3.2,2.78,4.59-.11,9.19.1,13.78-.08,2.34-.1,2.99.74,2.86,2.94-.16,2.52,0,5.06,0,7.6,0,.53.21,1.28-.45,1.52-.6.23-1.02-.36-1.46-.71-3.42-2.78-6.54-5.97-10.7-7.75-.52-.23-1.04-.49-1.59-.63-4.82-1.28-5.41-.81-5.41,4.08v48.56c0,2.8.18,5.6,1.56,8.09,2.39,4.29,7.43,5.69,13.21,3.74,1.62-.55,3.2-1.26,4.79-1.91.6-.24,1.15-.29,1.53.29.44.71-.23,1.05-.67,1.36-9.25,6.78-21.49,9.29-31.31,4.82-6.09-2.77-8.46-8.15-8.7-14.3-.36-8.74-.1-17.49-.1-26.24h-.06l-.02-.03Z"/>
  <path class="cls-1" d="M127.37,82.79c-.08-10.55.49-21.11-.28-31.64-.63-8.61-4.22-15.79-12.99-18.8-12.25-4.22-23.23-1.57-32.79,7.1-.58.52-1.07,1.62-1.88,1.29-.97-.4-.5-1.6-.52-2.44-.03-6.29,0-12.6-.03-18.89-.05-8.57-7.76-17.21-16.31-18.28-3.44-.44-3.68-.23-3.68,3.17v48.58c0,16.44.03,13.25-.03,29.68,0,.66.07,1.18.21,1.62v.06c0,1.8.13,3.59.32,5.39.84,7.89,8.81,15.53,16.75,16.27,2.16.21,2.89-.32,2.87-2.57-.11-9.08-.05-18.15-.05-27.23,0-4.19,0,11.24,0,7.07.03-10.87.06-21.74-.23-32.61-.16-5.94,2.27-9.11,7.01-11.45,1.02-.5,2.03-1.1,3.12-1.44,7.71-2.41,14.46-.87,17.37,7.04,1.07,2.91,1.33,6.03,1.31,9.17-.02,10.84-.02,21.69,0,32.53h-.05c0,4.68,0-10.27.05-5.61v1.29c0,.74,0,1.31.05,1.76.03,1.52.07,3.04.1,4.56.24,8.8,8.78,17.05,17.35,17.52,1.74.1,2.34-.45,2.32-2.17-.03-6.62-.03-13.23-.05-19.87.1-.37.13-.81.11-1.36-.15-6.45,0,6.71-.05.24h-.02Z"/>
</svg>